<svg xmlns="http://www.w3.org/2000/svg" viewBox="0 0 1200 240" width="1200" height="240" role="img" aria-label="At work"><defs><clipPath id="c"><rect width="1200" height="240" rx="14"/></clipPath></defs><g clip-path="url(#c)"><rect width="1200" height="240" fill="#DCDFE2"/><rect width="1200" height="42" fill="#8F959C"/><rect x="20" y="8" width="210" height="24" fill="#E3F0A2"/><rect x="260" y="8" width="210" height="24" fill="#E3F0A2"/><rect x="500" y="8" width="210" height="24" fill="#E3F0A2"/><rect x="740" y="8" width="210" height="24" fill="#E3F0A2"/><rect x="980" y="8" width="210" height="24" fill="#E3F0A2"/><rect x="40" y="66" width="190" height="104" fill="#8E5A2E"/><rect x="48" y="74" width="174" height="88" fill="#C69157"/><rect x="58" y="82" width="34" height="46" fill="#FFFFFF"/><rect x="98" y="80" width="30" height="40" fill="#FFFFFF"/><rect x="134" y="80" width="40" height="24" fill="#F6D84A"/><text x="154" y="95" text-anchor="middle" font-family="'Chalkboard SE','Comic Sans MS','Segoe Print',cursive" font-size="8" textLength="32" lengthAdjust="spacingAndGlyphs" fill="#2A2A2A">Gluecrawl</text><rect x="178" y="80" width="40" height="24" fill="#F2A23A"/><text x="198" y="95" text-anchor="middle" font-family="'Chalkboard SE','Comic Sans MS','Segoe Print',cursive" font-size="8" textLength="32" lengthAdjust="spacingAndGlyphs" fill="#2A2A2A">MeliFlow</text><rect x="178" y="108" width="40" height="24" fill="#7CC36A"/><text x="198" y="123" text-anchor="middle" font-family="'Chalkboard SE','Comic Sans MS','Segoe Print',cursive" font-size="8" textLength="32" lengthAdjust="spacingAndGlyphs" fill="#2A2A2A">ship it</text><path d="M62,92 h26 M62,100 h22 M62,108 h24 M102,90 h22 M102,98 h18" stroke="#9AA0A6" stroke-width="2"/><rect x="260" y="80" width="130" height="86" fill="#5B4A3A"/><rect x="266" y="86" width="118" height="74" fill="#CFE0A8"/><path d="M266,120 q30,-8 50,6 t68,-4 v10 q-34,8 -68,2 t-50,-4 z" fill="#4AA3D8"/><path d="M300,96 q30,-8 44,8 q10,14 -10,20 q-24,4 -34,-8 z" fill="#E7C98A"/><rect x="410" y="72" width="120" height="100" fill="#5B4A3A"/><rect x="416" y="78" width="108" height="88" fill="#F3EFE6"/><path d="M424,90 h40 v24 h-40 z" fill="#E0B97C" stroke="#7A7068" stroke-width="1"/><path d="M468,86 h48 v30 h-48 z" fill="#B9A3D8" stroke="#7A7068" stroke-width="1"/><path d="M424,120 h56 v38 h-56 z" fill="#A8C98A" stroke="#7A7068" stroke-width="1"/><path d="M484,122 h32 v36 h-32 z" fill="#8EC5E0" stroke="#7A7068" stroke-width="1"/><circle cx="640" cy="80" r="22" fill="#FFFFFF" stroke="#2C2C2C" stroke-width="3"/><path d="M640,80 v-13 M640,80 l-8,6" stroke="#2C2C2C" stroke-width="2.5" stroke-linecap="round"/><rect x="560" y="112" width="250" height="84" fill="#FFFFFF" stroke="#A7ADB3" stroke-width="5"/><text x="685" y="168" text-anchor="middle" font-family="'Chalkboard SE','Comic Sans MS','Segoe Print',cursive" font-size="40" textLength="170" lengthAdjust="spacingAndGlyphs" fill="#1F3F8F">At work</text><rect x="600" y="196" width="170" height="5" fill="#A7ADB3"/><rect x="880" y="60" width="270" height="130" fill="#5B4A3A"/><rect x="888" y="68" width="254" height="114" fill="#3E9C9E"/><path d="M898,82 q34,-10 66,0 q8,10 -6,20 q-12,6 -20,18 q-8,6 -14,0 q-14,-12 -26,-38 z" fill="#E9EDEE"/><path d="M946,124 q18,-4 26,10 q4,14 -8,30 q-8,10 -12,16 q-8,-8 -8,-22 q-4,-18 2,-34 z" fill="#E9EDEE"/><path d="M1036,80 q20,-6 34,2 q-2,10 -10,12 q12,4 14,14 q20,6 22,24 q-4,24 -24,42 q-10,-6 -12,-22 q-14,-12 -20,-30 q-10,-16 -4,-42 z" fill="#E9EDEE"/><path d="M1106,84 q22,-8 30,6 q2,14 -10,24 q-12,4 -20,-6 q-6,-12 0,-24 z" fill="#E9EDEE"/><path d="M966,158 Q1000,70 1046,88" fill="none" stroke="#1E1E1E" stroke-width="1.4" stroke-dasharray="4 3"/><line x1="966" y1="158" x2="966" y2="149" stroke="#2A2A2A" stroke-width="1.5"/><circle cx="966" cy="148" r="4" fill="#E0463A" stroke="#FFFFFF" stroke-width="1"/><text x="974" y="152" text-anchor="start" font-family="'Helvetica Neue',Arial,sans-serif" font-weight="700" font-size="9" fill="#1E1E1E">Buenos Aires</text><line x1="1046" y1="88" x2="1046" y2="79" stroke="#2A2A2A" stroke-width="1.5"/><circle cx="1046" cy="78" r="4" fill="#E0463A" stroke="#FFFFFF" stroke-width="1"/><text x="1038" y="82" text-anchor="end" font-family="'Helvetica Neue',Arial,sans-serif" font-weight="700" font-size="9" fill="#1E1E1E">London</text><rect y="206" width="1200" height="34" fill="#6A4A2F"/><rect y="202" width="1200" height="6" fill="#7B573A"/><path d="M96,132 h112 q7,0 7,7 v50 q0,7 -7,7 h-112 q-7,0 -7,-7 v-50 q0,-7 7,-7 z" fill="#3A3D42"/><rect x="108" y="142" width="88" height="42" rx="3" fill="#4A4E54"/><rect x="143" y="196" width="18" height="8" fill="#2E3034"/><rect x="124" y="201" width="56" height="4" rx="2" fill="#2E3034"/></g></svg>